**ABCDEFGHIJKLMNOPQRSTUVWXYZabcdefghijklmnopqrstuvwxyz**************************
**PARASOLID !"#$%&'()*+,-./:;<=>?@[\]^_`{|}~0123456789**************************
**PART1;
MC=AMD64;
MC_MODEL=Intel64 Family 6 Model 126 Stepping 5, GenuineIntel;
MC_ID=unknown;
OS=Windows_NT;
OS_RELEASE=unknown;
FRU=Parasolid Version 34.1, build 225,  5-24-2022;
APPL=SOLIDWORKS 2023-2022300;
SITE=;
USER=unknown;
FORMAT=text;
GUISE=transmit;
KEY=makeProjectedPlanarWire;
FILE=makeProjectedPlanarWire.x_t;
DATE=Tue Jan 30 10:57:20 2024;
**PART2;
SCH=SCH_3401225_34101;
USFLD_SIZE=0;
**PART3;
**END_OF_HEADER*****************************************************************
T51 : TRANSMIT FILE created by modeller version 340122523 SCH_3401225_34101_1300
6231 0 12 36 CCCI7 lattice222 0 CCCI4 mesh1006 0 I8 polyline1008 0 CCCCCCCDI5 ow
ner1040 0 CCCI16 boundary_lattice222 0 CCCI13 boundary_mesh1006 0 I17 boundary_p
olyline1008 0 CCCA16 index_map_offset0 0 1 dA9 index_map82 0 A17 node_id_index_m
ap82 0 A20 schema_embedding_map82 0 A5 child12 0 A14 lowest_node_id0 0 1 dA16 me
sh_offset_data206 0 Z1 382 0 0 0 0 0 0 0 0 0 1e3 1e-8 0 2 0 1 0 3 1 3 0 4 5 6 0
 0 7 8 9 0 0 0 0 0 0 0 13 255 3 101 0 1 0 10 0 0 7 10 50 255 4 3 0 10 0 0 0 +0 0
 0 0 1 0 0 0 1 31 255 5 62 0 8 11 0 0 --.045 0 0 0 1 0 0 0 1 .08 29 255 6 99 0 9
 12 0 -.101568542494924 0 .0565685424949237 19 9 CCCCCCI5 frame230 0 CA5 owner12
 0 Z7 100 0 1 0 0 3 0 V0 16 255 8 60 0 ?13 0 14 5 0 0 1 18 255 9 97 0 15 0 16 6
 ?1 17 255 15 0 0 0 0 9 17 18 0 19 -18 16 94 0 20 9 21 12 ?1 17 20 0 22 19 23 16
 24 14 0 13 +18 21 91 0 23 16 25 26 ?1 29 12 96 0 16 26 6 -.1015685424949236 0 -
.0565685424949239 29 26 93 0 21 27 12 .1015685424949236 0 -.0565685424949239 29
 27 90 0 25 28 26 .101568542494924 0 .0565685424949237 18 25 88 0 17 21 29 27 ?1
 29 28 81 0 29 30 27 .1001543289325508 0 .0551543289325506 18 29 79 0 31 25 32 2
8 ?1 29 30 78 0 32 33 28 .1001543289325506 0 -.0551543289325508 18 32 76 0 34 29
 35 30 ?1 29 33 75 0 35 36 30 -.1001543289325506 0 -.0551543289325508 18 35 73 0
 37 32 38 33 ?1 29 36 72 0 38 0 33 -.1001543289325508 0 .0551543289325506 18 38
 70 0 39 35 0 36 ?1 17 39 0 40 37 41 38 31 42 0 43 -15 255 40 7 0 39 10 0 17 37
 0 40 34 39 35 43 44 0 45 +17 41 0 40 39 34 29 46 47 0 0 -17 31 0 0 0 0 29 39 42
 0 41 +16 42 8 0 ?31 44 0 48 0 0 1 17 43 0 0 0 0 38 37 44 0 0 -16 44 14 0 ?37 49
 42 50 0 0 1 16 49 20 0 ?45 47 44 51 0 0 1 31 50 16 0 44 48 51 0 --.045 0 0 0 1
 0 0 0 1 .078 30 255 48 10 0 42 0 50 0 +0 0 .0551543289325506 1 0 0 30 51 22 0 4
9 50 52 0 +0 0 -.0551543289325508 -1 0 0 31 52 28 0 47 51 53 0 +.045 0 0 0 1 0 0
 0 1 .078 16 47 26 0 ?46 18 49 52 0 0 1 30 53 44 0 18 52 54 0 +0 0 .056568542494
9237 1 0 0 16 18 42 0 ?17 55 47 53 0 0 1 31 54 50 0 55 53 11 0 +.045 0 0 0 1 0 0
 0 1 .08 16 55 48 0 ?23 14 18 54 0 0 1 30 11 56 0 14 54 5 0 +0 0 -.0565685424949
239 -1 0 0 16 14 54 0 ?20 8 55 11 0 0 1 17 23 0 22 20 17 21 56 55 0 24 +15 22 38
2 0 19 10 40 17 17 0 22 23 19 25 15 18 0 56 +17 56 0 0 0 0 25 23 55 0 0 -17 24 0
 0 0 0 21 20 14 0 0 -17 19 0 22 17 20 9 13 8 0 0 -17 13 0 0 0 0 16 19 8 0 0 +14
 255 10 1 0 ?0 0 22 3 4 +0 0 0 0 3 17 46 0 0 0 0 32 41 47 0 0 +17 45 0 0 0 0 35
 34 49 0 0 +17 34 0 40 41 37 32 45 49 0 46 -1 0 
